<svg xmlns="http://www.w3.org/2000/svg" xmlns:xlink="http://www.w3.org/1999/xlink" viewBox="0 0 1280 800"><defs><style>.cls-1{isolation:isolate;}.cls-2{fill:url(#Degradado_sin_nombre_33);}.cls-3,.cls-4{fill:#f0fafe;mix-blend-mode:overlay;}.cls-3{opacity:0.27;}.cls-4{opacity:0.31;}.cls-5{opacity:0.39;}.cls-6{fill:#fff;}.cls-7{fill:#14acbf;}</style><linearGradient id="Degradado_sin_nombre_33" x1="507.56" y1="865.65" x2="751.81" y2="8.34" gradientUnits="userSpaceOnUse"><stop offset="0.01" stop-color="#78d4f2"/><stop offset="1" stop-color="#d6f2fb"/></linearGradient></defs><g class="cls-1"><g id="Layer_1" data-name="Layer 1"><rect class="cls-2" x="1" width="1279" height="798.04"/><polygon class="cls-3" points="1 0 1 215.62 220.6 283.52 284.61 0 1 0"/><polygon class="cls-4" points="801.58 0 1280 468.38 1280 0 801.58 0"/><polygon class="cls-3" points="758.94 801 438.43 452.77 117.93 801 758.94 801"/><g class="cls-5"><path class="cls-6" d="M859.32,519.78a7.28,7.28,0,1,1,7.28-7.28A7.29,7.29,0,0,1,859.32,519.78Zm0-10.4a3.12,3.12,0,1,0,3.12,3.12A3.12,3.12,0,0,0,859.32,509.38Z"/><path class="cls-6" d="M616.87,732.22a7.28,7.28,0,1,1,7.28-7.28A7.28,7.28,0,0,1,616.87,732.22Zm0-10.4a3.12,3.12,0,1,0,3.12,3.12A3.12,3.12,0,0,0,616.87,721.82Z"/><path class="cls-7" d="M182.05,418.47a20.8,20.8,0,1,1,20.8-20.8A20.82,20.82,0,0,1,182.05,418.47Zm0-35.36a14.56,14.56,0,1,0,14.56,14.56A14.57,14.57,0,0,0,182.05,383.11Z"/><path class="cls-7" d="M1,549.49v6.24a14.57,14.57,0,0,1,13.48,14.5A14.57,14.57,0,0,1,1,584.74V591a20.81,20.81,0,0,0,19.72-20.75A20.8,20.8,0,0,0,1,549.49Z"/><path class="cls-6" d="M368.79,209.19a10.28,10.28,0,1,1,10.27-10.27A10.28,10.28,0,0,1,368.79,209.19Zm0-16.64a6.37,6.37,0,1,0,6.36,6.37A6.38,6.38,0,0,0,368.79,192.55Z"/><path class="cls-7" d="M1219.37,518.58a3.1,3.1,0,0,1-2.29-1l-24.9-27a3.13,3.13,0,0,1,1.61-5.16l35.79-8.07a3.12,3.12,0,0,1,3.67,4l-10.9,35a3.15,3.15,0,0,1-3,2.2Zm-18.94-28.23,17.56,19,7.69-24.72Z"/><path class="cls-7" d="M459.8,0,449.31,33.69,418.21,0h-8.5l38.68,41.9a3.17,3.17,0,0,0,2.3,1,3.23,3.23,0,0,0,.68-.08,3.1,3.1,0,0,0,2.29-2.11L466.33,0Z"/><path class="cls-7" d="M450.67,587.21a2.11,2.11,0,0,1-1.31-.46l-20.2-16.2a2.08,2.08,0,0,1,.54-3.56l24.14-9.4a2.08,2.08,0,0,1,2.05.31,2.1,2.1,0,0,1,.76,1.94l-3.93,25.6a2.07,2.07,0,0,1-1.3,1.62A2,2,0,0,1,450.67,587.21Zm-16.1-17.66,14.59,11.7L452,562.77Z"/><path class="cls-7" d="M613.51,181.31a2.14,2.14,0,0,1-.92-.22l-28-13.75a2.07,2.07,0,0,1-.24-3.59l25.88-17.34a2.12,2.12,0,0,1,2.08-.14,2.09,2.09,0,0,1,1.15,1.73l2.08,31.09a2.06,2.06,0,0,1-.92,1.86A2,2,0,0,1,613.51,181.31Zm-23.8-16.11,21.49,10.57-1.6-23.9Z"/></g></g></g></svg>