<svg id="Layer_1" data-name="Layer 1" xmlns="http://www.w3.org/2000/svg" xmlns:xlink="http://www.w3.org/1999/xlink" viewBox="0 0 63 207.33"><defs><style>.cls-1,.cls-2,.cls-3,.cls-4,.cls-5,.cls-6,.cls-7{opacity:0.34;}.cls-1{fill:url(#linear-gradient);}.cls-2{fill:url(#linear-gradient-2);}.cls-3{fill:url(#linear-gradient-3);}.cls-4{fill:url(#linear-gradient-4);}.cls-5{fill:url(#linear-gradient-5);}.cls-6{fill:url(#linear-gradient-6);}.cls-8{fill:url(#linear-gradient-7);}.cls-9{opacity:0.06;}.cls-10{fill:url(#linear-gradient-8);}.cls-11{fill:url(#linear-gradient-9);}</style><linearGradient id="linear-gradient" x1="6.67" y1="120.33" x2="6.67" y2="207.33" gradientUnits="userSpaceOnUse"><stop offset="0" stop-color="aqua"/><stop offset="0.99" stop-color="blue"/></linearGradient><linearGradient id="linear-gradient-2" x1="17" y1="186.33" x2="17" y2="207.33" xlink:href="#linear-gradient"/><linearGradient id="linear-gradient-3" x1="57.84" y1="186.33" x2="57.84" y2="207.33" xlink:href="#linear-gradient"/><linearGradient id="linear-gradient-4" x1="27.33" y1="151" x2="27.33" y2="207.33" xlink:href="#linear-gradient"/><linearGradient id="linear-gradient-5" x1="37.67" y1="61.67" x2="37.67" y2="207.33" xlink:href="#linear-gradient"/><linearGradient id="linear-gradient-6" x1="48" y1="91.33" x2="48" y2="207.33" xlink:href="#linear-gradient"/><linearGradient id="linear-gradient-7" x1="4.33" y1="49.01" x2="61.66" y2="49.01" xlink:href="#linear-gradient"/><linearGradient id="linear-gradient-8" x1="4.33" y1="37.89" x2="61.66" y2="37.89" xlink:href="#linear-gradient"/><linearGradient id="linear-gradient-9" x1="5.01" y1="63.22" x2="62.34" y2="63.22" xlink:href="#linear-gradient"/></defs><rect class="cls-1" x="2.67" y="120.33" width="8" height="87"/><rect class="cls-2" x="13" y="186.33" width="8" height="21"/><rect class="cls-3" x="53.84" y="186.33" width="8" height="21"/><rect class="cls-4" x="23.33" y="151" width="8" height="56.33"/><rect class="cls-5" x="33.67" y="61.67" width="8" height="145.67"/><rect class="cls-6" x="44" y="91.33" width="8" height="116"/><g class="cls-7"><polygon class="cls-8" points="4.81 41.46 6.72 48.07 6.61 48.06 13.5 28.76 13.81 27.87 13.92 28.81 20.56 86.54 19.77 86.53 24.93 50.76 25.23 48.72 25.86 50.69 29.2 61.09 28.28 61.07 39.02 32.68 39.45 31.53 39.82 32.7 50.73 67.48 50.09 67.53 55.56 37.92 61.17 8.33 56.03 38 50.74 67.64 50.51 68.94 50.1 67.68 39.01 32.96 39.82 32.98 29.19 61.41 28.7 62.73 28.27 61.39 24.95 50.98 25.88 50.9 20.56 86.64 20.11 89.69 19.77 86.63 13.48 28.86 13.91 28.91 6.72 48.1 6.66 48.27 6.61 48.1 4.81 41.46"/></g><g class="cls-9"><polygon class="cls-10" points="4.81 30.33 6.72 36.94 6.61 36.94 13.5 17.64 13.81 16.74 13.92 17.69 20.56 75.41 19.77 75.4 24.93 39.64 25.23 37.6 25.86 39.56 29.2 49.97 28.28 49.94 39.02 21.56 39.45 20.4 39.82 21.58 50.73 56.36 50.09 56.4 55.56 26.79 61.17 -2.79 56.03 26.88 50.74 56.52 50.51 57.82 50.1 56.56 39.01 21.84 39.82 21.86 29.19 50.29 28.7 51.61 28.27 50.26 24.95 39.85 25.88 39.78 20.56 75.52 20.11 78.57 19.77 75.5 13.48 17.73 13.91 17.79 6.72 36.98 6.66 37.15 6.61 36.97 4.81 30.33"/></g><g class="cls-9"><polygon class="cls-11" points="5.49 55.67 7.4 62.28 7.29 62.27 14.17 42.97 14.49 42.07 14.6 43.02 21.24 100.75 20.45 100.73 25.61 64.97 25.91 62.93 26.54 64.9 29.88 75.3 28.95 75.28 39.69 46.89 40.13 45.74 40.5 46.91 51.41 81.69 50.77 81.73 56.23 52.12 61.84 22.54 56.7 52.21 51.42 81.85 51.18 83.15 50.78 81.89 39.69 47.17 40.49 47.19 29.87 75.62 29.37 76.94 28.95 75.6 25.63 65.19 26.55 65.11 21.24 100.85 20.78 103.9 20.45 100.84 14.16 43.07 14.59 43.12 7.4 62.31 7.33 62.48 7.29 62.31 5.49 55.67"/></g></svg>