<svg id="Layer_1" data-name="Layer 1" xmlns="http://www.w3.org/2000/svg" viewBox="0 0 42.37 73.56"><defs><style>.cls-1{fill:#ffed00;}.cls-2{fill:#fff;}</style></defs><polygon class="cls-1" points="42.37 50 21.19 73.56 0 50 0 48.6 21.19 57.02 42.37 48.6 42.37 50"/><path class="cls-1" d="M36.76,15.53v.06a15.57,15.57,0,1,1-31.14,0v-.06c0-.32,0-.65,0-1a15.57,15.57,0,0,1,31.08,0C36.75,14.88,36.76,15.21,36.76,15.53Z"/><path class="cls-2" d="M12.58,5.17h4.18V13.4h8.86V5.17h4.17V26H25.62V16.84H16.76V26H12.58Z"/><path class="cls-1" d="M37.94,14.48c0,.35,0,.7,0,1v.06a16.79,16.79,0,1,1-33.58,0v-.06q0-.53,0-1L.72,16.85v31H17.08V40.76a4.11,4.11,0,0,1,4.11-4.11h0a4.11,4.11,0,0,1,4.1,4.11v7.12H41.66v-31ZM9.19,44.9H4.42V40.13H9.19Zm0-7.32H4.42V32.81H9.19ZM37.88,44.9H33.12V40.13h4.76Zm0-7.32H33.12V32.81h4.76Z"/></svg>