<svg id="Layer_1" data-name="Layer 1" xmlns="http://www.w3.org/2000/svg" xmlns:xlink="http://www.w3.org/1999/xlink" viewBox="0 0 384 420"><defs><style>.cls-1{fill:none;}.cls-2{isolation:isolate;}.cls-3{fill:#e51a1a;}.cls-4{fill:#ff2624;}.cls-5{fill:#b60a00;}.cls-6{fill:#ff7400;}.cls-7{fill:#ffab00;}.cls-8{fill:#ff4700;}.cls-9{fill:#0078a7;}.cls-10{fill:#009ad8;}.cls-11{fill:#004f71;}.cls-12{fill:#498000;}.cls-13{fill:#528e00;}.cls-14{fill:#305900;}.cls-15{fill:#ad0b00;}.cls-16{fill:#9b0900;}.cls-17{fill:#ff1a00;}.cls-18{clip-path:url(#clip-path);}.cls-19{fill:#0089d9;}.cls-20{fill:#005c82;}</style><clipPath id="clip-path"><path class="cls-1" d="M219.52,330.35l.11,36.15c0,6.15,2.53,12.38,7.68,18.26l-.1-36.16C222.06,342.72,219.54,336.49,219.52,330.35Z"/></clipPath></defs><g class="cls-2"><polygon class="cls-3" points="197.14 56.49 162.29 36.24 163.04 300.65 197.89 320.9 197.14 56.49"/><polygon class="cls-4" points="241.59 30.83 206.74 10.58 162.29 36.24 197.14 56.49 241.59 30.83"/><polygon class="cls-5" points="197.14 56.49 197.89 320.9 242.34 295.24 241.59 30.83 197.14 56.49"/></g><g class="cls-2"><polygon class="cls-6" points="144.84 153.86 109.99 133.61 110.56 331.92 145.41 352.17 144.84 153.86"/><polygon class="cls-7" points="189.29 128.2 154.44 107.95 109.99 133.61 144.84 153.86 189.29 128.2"/><polygon class="cls-8" points="144.84 153.86 145.41 352.17 189.85 326.51 189.29 128.2 144.84 153.86"/></g><g class="cls-2"><polygon class="cls-9" points="93.18 250.04 58.34 229.78 58.71 361.99 93.56 382.24 93.18 250.04"/><polygon class="cls-10" points="137.63 224.37 102.78 204.12 58.34 229.78 93.18 250.04 137.63 224.37"/><polygon class="cls-11" points="93.18 250.04 93.56 382.24 138.01 356.57 137.63 224.37 93.18 250.04"/></g><g class="cls-2"><polygon class="cls-12" points="41.66 346.46 6.81 326.21 7 392.31 41.85 412.56 41.66 346.46"/><polygon class="cls-13" points="86.11 320.8 51.26 300.54 6.81 326.21 41.66 346.46 86.11 320.8"/><polygon class="cls-14" points="41.66 346.46 41.85 412.56 86.3 386.9 86.11 320.8 41.66 346.46"/></g><g class="cls-2"><polygon class="cls-15" points="307.99 333.93 356.83 362.31 356.93 398.47 308.09 370.09 259.24 341.7 259.13 305.54 307.99 333.93"/><path class="cls-16" d="M370.84,350.75a35.05,35.05,0,0,0,2.56-3.65,28.76,28.76,0,0,0,2.63-5.65,24.05,24.05,0,0,0,1.26-7.72h0l.11,36.15c0,10.35-6.8,20.7-20.47,28.59l-.1-36.16A49.35,49.35,0,0,0,370.84,350.75Z"/><path class="cls-17" d="M259.14,305.54,308,333.93l48.84,28.38c27.15-15.67,27.3-41.09.33-56.77S286.29,289.86,259.14,305.54Z"/></g><g class="cls-2"><g class="cls-2"><g class="cls-18"><path class="cls-19" d="M219.53,330.94a23.19,23.19,0,0,0,.45,3.87,24.07,24.07,0,0,0,1.11,3.86,28.39,28.39,0,0,0,1.88,4,33.33,33.33,0,0,0,2.92,4.34c.42.53.86,1.06,1.32,1.58l.1,36.16q-.69-.79-1.32-1.59a34.28,34.28,0,0,1-2.92-4.33,28.39,28.39,0,0,1-1.88-4,25.14,25.14,0,0,1-1.11-3.86,22.17,22.17,0,0,1-.44-3.87c0-.2,0-.4,0-.6l-.11-36.15C219.52,330.54,219.53,330.74,219.53,330.94Z"/></g></g><path class="cls-10" d="M240.21,302c-21.72,12.54-26.82,30.81-13,46.61l61.85-18.22Z"/><polygon class="cls-20" points="227.21 348.6 227.31 384.76 289.16 366.54 289.06 330.38 227.21 348.6"/><path class="cls-6" d="M247.74,353.88c.18.19.38.37.57.56l1.15,1.1,1.07.93.91.78c.37.3.77.6,1.16.9l.94.73c.41.3.84.59,1.27.88s.63.46,1,.68.93.58,1.39.87.65.42,1,.61l.37.22c.6.35,1.21.7,1.82,1l.69.37c.57.3,1.14.6,1.72.89l.61.3c.77.38,1.55.74,2.35,1.09l.43.19,2,.85.77.3c.62.25,1.26.49,1.9.73l.67.24c.84.3,1.69.59,2.56.87s2,.64,3.07.93l.18.05c1,.28,2,.55,3,.8l1.09.25,2.13.5,1.31.26c.65.14,1.31.27,2,.39l1.07.19c1,.17,2,.34,3.07.49L292,373c1.34.18,2.68.34,4,.48l.39,0c1.05.1,2.11.19,3.17.27l1.22.07c.8,0,1.59.09,2.39.12l1.54,0,1.86,0h1.59l1.85,0,1.66,0,1.68-.07,1.69-.09,1.68-.12,1.7-.14,1.66-.16,1.68-.19,1.66-.21,1.63-.24,1.79-.28,1.6-.28,1.77-.34,1.52-.32c.7-.15,1.4-.3,2.09-.47l1.43-.34,2.12-.56c.6-.17,1.21-.33,1.81-.51.78-.23,1.55-.46,2.29-.7l.7-.23,1.51-.51.78-.27,1.38-.51.73-.27.94-.38,1.54-.64.9-.39,1.46-.67.85-.41,1.54-.78.72-.38c.75-.4,1.49-.81,2.24-1.24l.1,36.16c-.74.43-1.49.84-2.23,1.24l-.72.37c-.51.27-1,.53-1.55.79l-.85.4-1.46.68-.9.39-1.54.64-.58.24-.36.14-.72.27-1.39.51-.77.27-1.52.51-.69.23c-.75.24-1.51.47-2.3.7l-.85.25-1,.25c-.7.2-1.41.39-2.12.56l-1.43.35-2.08.47-.75.17-.78.15c-.59.12-1.17.23-1.76.33l-1.61.29-1.78.28c-.32,0-.62.1-.94.15l-.7.08c-.55.08-1.1.15-1.66.21l-1.68.2-1.66.16-1,.09-.72.05-1.69.11-1.68.1-1.69.06-1,0h-.68l-1.86,0h-1.59l-1.86,0-1.05,0-.49,0c-.79,0-1.59-.07-2.38-.12l-1.23-.07c-1.06-.07-2.12-.16-3.17-.26l-.36,0h0q-2-.21-4-.48L291,409c-1-.15-2-.32-3.07-.5l-.68-.1-.39-.08c-.66-.12-1.32-.26-2-.39l-1.31-.27c-.71-.15-1.42-.32-2.13-.49l-1.08-.25c-1-.26-2-.52-3-.8l-.17-.05c-1-.29-2.06-.61-3.07-.93l-.11,0c-.83-.26-1.64-.54-2.45-.83l-.67-.25c-.64-.23-1.27-.47-1.9-.72l-.77-.3c-.68-.28-1.36-.56-2-.85l-.44-.19c-.79-.35-1.58-.72-2.35-1.09l-.61-.31c-.58-.28-1.15-.58-1.72-.88-.23-.12-.46-.24-.68-.37-.62-.34-1.23-.68-1.83-1l-.37-.22-.1-.06c-.3-.17-.58-.37-.87-.55-.47-.29-.94-.58-1.39-.88s-.65-.44-1-.67-.85-.58-1.26-.88-.63-.49-1-.73-.78-.6-1.16-.91-.6-.51-.9-.77-.73-.62-1.08-.94l-.19-.16c-.33-.31-.64-.62-1-.93l-.58-.56c-.55-.57-1.09-1.14-1.61-1.73l-.1-36.16C246.64,352.74,247.18,353.31,247.74,353.88Z"/><path class="cls-7" d="M246.13,352.15c17.27,19.76,59,27.61,93.12,17.54a76.72,76.72,0,0,0,17.58-7.38L308,333.93Z"/></g></svg>