<svg id="Layer_1" data-name="Layer 1" xmlns="http://www.w3.org/2000/svg" viewBox="0 0 254.45 72.57"><defs><style>.cls-1{fill:#002a69;}.cls-2{fill:#f7931e;}.cls-3{fill:#fabe66;}.cls-4{fill:#fcd499;}.cls-5{fill:#fff;}</style></defs><path class="cls-1" d="M2.4,18A1.32,1.32,0,0,1,3,17.3l6.81-3.71,7-3.83a1.26,1.26,0,0,1,1.95.56c.17.3.35.6.5.92a1.2,1.2,0,0,1-.55,1.7c-.47.27-.95.54-1.43.78-.23.12-.22.21-.11.41q2.3,4.19,4.57,8.39l7.58,13.9c.88,1.62,1.76,3.24,2.66,4.85a.88.88,0,0,1,0,.94,7,7,0,0,1-1.64,1.95c-.28.25-.24.42-.09.7.9,1.64,1.79,3.29,2.7,4.92a.85.85,0,0,1-.1,1.1A6,6,0,0,1,28.93,53a.76.76,0,0,1-.81-.46l-1.46-2.68c-.46-.84-.93-1.66-1.37-2.5-.11-.22-.23-.17-.4-.13a8.9,8.9,0,0,1-2.57.34,1,1,0,0,1-.9-.55l-9-16.45C10.54,27,8.61,23.5,6.71,20c-.16-.29-.3-.33-.57-.17-.43.26-.87.5-1.31.73A1.22,1.22,0,0,1,3.05,20c-.2-.33-.38-.68-.56-1A1.25,1.25,0,0,1,2.4,18Zm28.38,23.8a.28.28,0,0,0-.05-.26c-.21-.37-.4-.74-.6-1.11l-6.89-12.6q-3.55-6.54-7.12-13.09c-.13-.24-.25-.27-.48-.13l-2,1.09c-1.9,1-3.8,2.07-5.71,3.09-.28.15-.31.29-.15.57Q11,25.24,14.2,31.11q4,7.38,8,14.76a.65.65,0,0,0,.75.4,11.83,11.83,0,0,0,7.25-3.75A8.23,8.23,0,0,0,30.78,41.82Zm-1.6,9.84a1.23,1.23,0,0,0,.2,0,4.55,4.55,0,0,0,2.27-1.27.24.24,0,0,0,0-.33l-2.5-4.6c-.09-.18-.18-.2-.35-.08a12.69,12.69,0,0,1-2.2,1.21c-.2.08-.25.13-.13.35.83,1.5,1.64,3,2.45,4.51C29,51.53,29.05,51.64,29.18,51.66Z"/><path class="cls-1" d="M8.93,2.71c-.1.46-.51.67-.92.89-.59.32-.59.33-.26.92C8.92,6.68,10.09,8.83,11.28,11c.15.27.1.36-.17.5-1.15.61-2.3,1.25-3.44,1.9-.22.12-.3.12-.43-.12C6,11,4.78,8.79,3.58,6.54c-.19-.36-.33-.36-.65-.17a1.61,1.61,0,0,1-1.52.35,1.2,1.2,0,0,1-.62-.48C.56,5.84.33,5.45.13,5A1.22,1.22,0,0,1,.67,3.38c1.4-.78,2.82-1.54,4.22-2.3C5.45.78,6,.47,6.55.18A1.19,1.19,0,0,1,8.2.56,7.2,7.2,0,0,1,8.94,2,1.08,1.08,0,0,1,8.93,2.71Z"/><path class="cls-1" d="M37.75,65.64c-.38-.68-.76-1.36-1.13-2l-4.19-7.68c-.37-.69-.73-1.38-1.12-2.06-.11-.2-.09-.29.12-.4.85-.44.84-.45,1.32.42,1.66,3,3.31,6.07,5,9.1a1.39,1.39,0,0,1,.17.72c0,.64,0,1.28-.06,1.91Z"/><path class="cls-2" d="M37.76,66.81a9,9,0,0,0,1.41,1.93,2.76,2.76,0,0,1,.77,1.85,2.07,2.07,0,0,1-2,2,2.1,2.1,0,0,1-2.12-1.91,3.06,3.06,0,0,1,.84-2.08A7.56,7.56,0,0,0,37.76,66.81Z"/><path class="cls-2" d="M23.15,45.31a.49.49,0,0,1-.27-.28c-1.67-3-3.33-6-4.94-9-.82-1.54-1.67-3.07-2.51-4.6-.24-.45-.24-.48.21-.73,1.93-1,3.88-2.09,5.8-3.16.37-.21.55-.18.75.21q2.93,5.44,5.89,10.87c.49.9,1,1.81,1.51,2.7a.38.38,0,0,1,0,.52,10.32,10.32,0,0,1-6.18,3.42Z"/><path class="cls-3" d="M14.77,29.85a1,1,0,0,1-.54-.54c-.62-1.08-.61-1.13.49-1.73l5-2.73c.53-.29.73-.22,1,.32.67,1.15.66,1.18-.51,1.82l-5,2.74A.66.66,0,0,1,14.77,29.85Z"/><path class="cls-4" d="M13.4,25.16A.6.6,0,0,1,13,24.7a.69.69,0,0,1,.35-.71l2.16-1.18c.52-.28,1-.57,1.55-.83a.61.61,0,0,1,.87.22.67.67,0,0,1-.3.9l-3.64,2A.76.76,0,0,1,13.4,25.16Z"/><path class="cls-5" d="M39.48,70.76a1.26,1.26,0,0,1-1.23,1.29,1.21,1.21,0,0,1-1-.58,1.18,1.18,0,0,0,.67.21,1.26,1.26,0,0,0,1.23-1.29,1.28,1.28,0,0,0-.2-.71A1.32,1.32,0,0,1,39.48,70.76Z"/><path class="cls-1" d="M49.05,18.75,46.89,23,37,42.45,27.05,23l-2.17-4.23h4.74L31.79,23,37,33.14,42.15,23l2.16-4.23Z"/><path class="cls-1" d="M66.73,42.45H62l-2.17-4.23L54.64,28.06,49.46,38.22l-2.17,4.23H42.55l2.17-4.23,9.92-19.47,9.92,19.47Z"/><path class="cls-1" d="M69.67,30.6a7.63,7.63,0,0,0,7.62,7.62H89.14v4.23H77.29a11.85,11.85,0,0,1,0-23.7H89.14V23H77.29A7.63,7.63,0,0,0,69.67,30.6Z"/><path class="cls-1" d="M94.92,30.6a7.63,7.63,0,0,0,7.62,7.62h11.85v4.23H102.54a11.85,11.85,0,0,1,0-23.7h11.85V23H102.54A7.63,7.63,0,0,0,94.92,30.6Z"/><path class="cls-1" d="M117.78,42.45V18.75H122v23.7Z"/><path class="cls-1" d="M149.09,18.78v23.7l-4.23-3.25L129.63,27.48v15h-4.24V18.85l4.24,3.25,15.23,11.75V18.75Z"/><path class="cls-1" d="M175.33,42.45h-4.74l-2.17-4.23-5.18-10.16-5.18,10.16-2.16,4.23h-4.74l2.16-4.23,9.92-19.47,9.93,19.47Z"/><path class="cls-1" d="M194.32,18.78V23h-9.71V42.48h-4.24V23h-9.71V18.78Z"/><path class="cls-1" d="M197.74,42.45V18.75H202v23.7Z"/><path class="cls-1" d="M228.21,30.6a11.85,11.85,0,1,1-11.85-11.85A11.86,11.86,0,0,1,228.21,30.6Zm-4.23,0a7.62,7.62,0,1,0-7.62,7.62A7.63,7.63,0,0,0,224,30.6Z"/><path class="cls-1" d="M254.45,18.78v23.7l-4.23-3.25L235,27.48v15h-4.23V18.85L235,22.1l15.24,11.75V18.75Z"/><path class="cls-2" d="M58.85,49.77h-13v7.75h13V54.89l4.82.59v1.46a2.38,2.38,0,0,1-1.07,2.29,9.12,9.12,0,0,1-4.07.61H46.15a9.17,9.17,0,0,1-4.09-.61A2.42,2.42,0,0,1,41,56.94V50.48a2.44,2.44,0,0,1,1.06-2.29,9.13,9.13,0,0,1,4.09-.62H58.53a9.09,9.09,0,0,1,4.07.62,2.4,2.4,0,0,1,1.07,2.29v1.16l-4.82.45Z"/><path class="cls-2" d="M68,50.36A2.45,2.45,0,0,1,69,48.07a9.13,9.13,0,0,1,4.09-.62H88.39a9.11,9.11,0,0,1,4.08.62,2.43,2.43,0,0,1,1.06,2.29v6.46a2.4,2.4,0,0,1-1.06,2.29,9.14,9.14,0,0,1-4.08.61H73.12A9.17,9.17,0,0,1,69,59.11,2.42,2.42,0,0,1,68,56.82Zm4.83,7.07H88.72V49.65H72.8Z"/><path class="cls-2" d="M107.74,59.76l-12-12.27h5.51l8.41,8.86,8-8.86h4.81l-11.4,12.27Z"/><path class="cls-2" d="M125.19,59.66V47.4H130V59.66Z"/><path class="cls-2" d="M136.32,59.84V47.57h13.35q5.72,0,8.78,1.58c2.05,1.06,3.08,2.55,3.08,4.49a4.57,4.57,0,0,1-1.2,3.08A8.12,8.12,0,0,1,157,58.9a14.66,14.66,0,0,1-3.36.71,45.52,45.52,0,0,1-5.16.23Zm4.83-2.32h6.24c3.33,0,5.68-.3,7.07-.91a3.22,3.22,0,0,0,.35-5.87,10.6,10.6,0,0,0-5.1-1h-8.56Z"/><path class="cls-2" d="M182.43,55.48V53.26h9.36v2.22Z"/><path class="cls-2" d="M217,59.76V49.91h-4.42V48.28l8.8-.79V59.76Z"/><path class="cls-2" d="M246.85,54.64c-1.49.14-3,.25-4.53.31s-3.08.1-4.63.1a23.1,23.1,0,0,1-6.9-.68,2.45,2.45,0,0,1-1.88-2.4V50.36a2.36,2.36,0,0,1,1.72-2.23,14.83,14.83,0,0,1,5.37-.71h8.75q3.93,0,5.38.79a3,3,0,0,1,1.45,2.92V52.7c0,2.23-1.33,4-4,5.17s-6.44,1.81-11.31,1.81h-.91a5.43,5.43,0,0,1-.58,0l-2.85-1.92h1.32a46.07,46.07,0,0,0,9.59-.7A6,6,0,0,0,246.85,54.64Zm.24-1.83a3.24,3.24,0,0,0,.09-.4,2,2,0,0,0,0-.32c0-1.18-.27-1.91-.81-2.2a8.94,8.94,0,0,0-3.53-.43h-5.75a9.6,9.6,0,0,0-3,.32,1.18,1.18,0,0,0-.82,1.19v.67a1.16,1.16,0,0,0,.92,1.16,14,14,0,0,0,3.71.31c1.31,0,2.74,0,4.29-.07S245.39,52.92,247.09,52.81Z"/></svg>