<svg id="Layer_1" data-name="Layer 1" xmlns="http://www.w3.org/2000/svg" viewBox="0 0 472 472"><defs><style>.cls-1{fill:#29abe2;}.cls-2{fill:#fff;}</style></defs><circle class="cls-1" cx="236" cy="236" r="236"/><path class="cls-2" d="M388.58,91.45,369.82,97.9l-76.57,76.57a33.27,33.27,0,0,0-43.77,2.88l-91.36,91.36L152,262.57a11.93,11.93,0,0,0-16.87,0h0a11.94,11.94,0,0,0,0,16.88l23.78,23.77-42.14,42.14L99.59,328.19a9.48,9.48,0,0,0-13.4,0h0a9.48,9.48,0,0,0,0,13.39l46.1,46.1a9.46,9.46,0,0,0,13.39,0h0a9.46,9.46,0,0,0,0-13.39l-17.17-17.17L170.65,315l23.78,23.77a11.93,11.93,0,0,0,16.87,0h0a11.93,11.93,0,0,0,0-16.87l-6.13-6.14,91.36-91.36a33.27,33.27,0,0,0,2.87-43.77Z"/></svg>